<svg width="240" height="240" viewBox="0 0 240 240" fill="none" xmlns="http://www.w3.org/2000/svg">
<path d="M110 194.25L60 165.5C56.8333 163.667 54.375 161.25 52.625 158.25C50.875 155.25 50 151.917 50 148.25V90.75C50 87.0833 50.875 83.75 52.625 80.75C54.375 77.75 56.8333 75.3333 60 73.5L110 44.75C113.167 42.9167 116.5 42 120 42C123.5 42 126.833 42.9167 130 44.75L180 73.5C183.167 75.3333 185.625 77.75 187.375 80.75C189.125 83.75 190 87.0833 190 90.75V148.25C190 151.917 189.125 155.25 187.375 158.25C185.625 161.25 183.167 163.667 180 165.5L130 194.25C126.833 196.083 123.5 197 120 197C116.5 197 113.167 196.083 110 194.25ZM110 171.25V125.25L70 102V148.25L110 171.25ZM130 171.25L170 148.25V102L130 125.25V171.25ZM120 108L159.5 84.75L120 62L80.5 84.75L120 108Z" fill="#CEA244"/>
</svg>
