<svg width="25" height="24" viewBox="0 0 25 24" fill="none" xmlns="http://www.w3.org/2000/svg">
<path d="M9.08852 3.02954V17.6656H6.74754C6.48679 17.6656 6.27541 17.4542 6.27541 17.1935V3.50167C6.27541 3.24092 6.48679 3.02954 6.74754 3.02954H9.08852Z" fill="white"/>
<path d="M20.8129 17.1538C20.8129 17.4253 20.593 17.6457 20.3216 17.646H11.0951V9.67822H20.8129V17.1538ZM18.433 13.3774C17.5638 13.3774 16.8588 14.0816 16.8588 14.9507C16.8588 15.8199 17.5638 16.5249 18.433 16.5249C19.3021 16.5248 20.0062 15.8198 20.0062 14.9507C20.0061 14.0816 19.302 13.3775 18.433 13.3774ZM20.3216 3.06885C20.5928 3.0691 20.8125 3.28888 20.8129 3.56006V7.71143H11.0951V3.06885H20.3216Z" fill="white"/>
<path d="M3.61967 6.49182V20.4394H18.5508" stroke="white" stroke-width="1.25902"/>
</svg>
